<?xml version="1.0" standalone="yes"?>
<svg width="280" height="68">
<path style="fill:#000000; stroke:none;" d="M0 0L0 68L280 68L280 0L0 0z"/>
<path style="fill:#ffffff; stroke:none;" d="M51 9L51 58L58 56L59 56C80.5694 72.0503 93.7717 28.2267 72.9961 23.3943C68.7896 22.4158 64.1309 23.0165 60 24L60 9L51 9M88 9L88 58L97 58C97 53.0983 94.8067 24.2626 106.852 31.8364C112.903 35.6414 110 51.7614 110 58L119 58C119 40.3948 121.955 18.0587 97 24L97 9L88 9M169 9L169 58L178 58C178 53.138 175.931 24.3401 187.852 31.8364C193.903 35.6417 191 51.7612 191 58L200 58C200 40.3092 203.129 18.0174 178 24L178 9L169 9M240 9L240 58L249 58L249 45C258.095 51.6986 258.652 58 271 58L257 39L257 38L271 23C260.365 23 256.443 26.5568 249 34L249 9L240 9M128.144 10.8511C122.448 12.7153 125.624 22.2489 131.683 19.392C136.227 17.2491 133.169 9.20616 128.144 10.8511M7 58L17 58L21 45C24.8682 45 31.2197 43.8037 34.5818 46.0278C42.4146 51.2092 37.9916 57.9907 50 58L33 12L24.8179 13.6034L18.5756 28L7 58M125 23L125 58L134 58L134 23L125 23M139 48C139.017 69.6582 173.481 56.2346 163.258 42.213C159.627 37.2337 151.757 35.84 147 32L162 33L165 25C156.454 22.2908 133.079 20.8817 139.742 36.9066C142.234 42.8984 149.693 42.2884 153.534 46.6188C157.893 51.5336 147.062 50.547 145.005 49.9105C142.987 49.2862 141.039 48.5565 139 48M234 48C225.848 50.6517 217.506 53.2185 214 43L236 43C235.982 36.4796 235.559 29.7738 229.956 25.4336C219.082 17.0103 205.605 27.0855 205.04 39C204.719 45.7676 206.068 52.2355 212.015 56.2971C221.497 62.7722 233.991 59.7209 234 48z"/>
<path style="fill:#000000; stroke:none;" d="M28 26L25 37L33 37L28 26M66.0147 30.7616C56.7904 32.1844 57.9045 52.6246 67.9884 50.6381C77.0115 48.8606 76.0798 29.2091 66.0147 30.7616M214 36L227 36C223.357 29.3626 217.643 29.3626 214 36z"/>
</svg>
