<?xml version="1.0" encoding="UTF-8" ?>
<!DOCTYPE svg PUBLIC "-//W3C//DTD SVG 1.1//EN" "http://www.w3.org/Graphics/SVG/1.1/DTD/svg11.dtd">
<svg width="700pt" height="140pt" viewBox="0 0 700 140" version="1.1" xmlns="http://www.w3.org/2000/svg">
<path fill="#ffffff" d=" M 0.00 0.00 L 700.00 0.00 L 700.00 140.00 L 0.00 140.00 L 0.00 0.00 Z" />
<path fill="#000000" d=" M 85.00 28.29 C 89.31 28.30 93.62 28.29 97.94 28.30 C 97.55 37.70 98.90 47.27 96.92 56.54 C 99.41 53.38 102.99 51.16 106.95 50.41 C 114.55 48.90 123.32 50.33 128.82 56.17 C 134.87 62.45 136.68 71.55 136.64 80.00 C 136.65 88.43 134.80 97.53 128.69 103.74 C 122.85 109.80 113.53 111.15 105.64 109.13 C 101.69 108.16 98.06 105.91 95.78 102.50 C 95.65 104.68 95.36 106.85 95.00 109.00 C 91.66 109.00 88.33 109.00 85.00 109.00 C 85.00 82.10 85.00 55.19 85.00 28.29 Z" />
<path fill="#000000" d=" M 146.75 28.34 C 151.06 28.34 155.37 28.34 159.69 28.34 C 159.63 37.27 159.84 46.19 159.56 55.11 C 165.32 49.91 173.70 49.01 181.05 50.48 C 185.75 51.38 190.34 53.89 192.90 58.05 C 195.68 62.48 196.15 67.88 196.13 72.99 C 196.12 84.99 196.13 97.00 196.12 109.00 C 191.84 109.00 187.55 109.00 183.26 109.00 C 183.25 96.68 183.30 84.37 183.24 72.06 C 183.25 68.38 182.36 63.80 178.53 62.27 C 174.28 60.74 169.24 61.07 165.28 63.27 C 160.62 66.08 159.95 72.07 159.73 76.99 C 159.63 87.66 159.72 98.33 159.69 109.00 C 155.38 109.00 151.06 109.00 146.75 109.00 C 146.75 82.11 146.74 55.23 146.75 28.34 Z" />
<path fill="#000000" d=" M 282.25 28.34 C 286.56 28.34 290.87 28.34 295.19 28.35 C 295.11 37.30 295.36 46.25 295.04 55.20 C 299.81 50.73 306.68 49.37 313.02 49.98 C 318.36 50.37 323.93 52.29 327.37 56.60 C 330.80 60.91 331.61 66.62 331.62 71.97 C 331.64 84.31 331.62 96.65 331.63 109.00 C 327.34 109.00 323.05 109.00 318.77 109.00 C 318.73 96.42 318.83 83.85 318.72 71.28 C 318.67 67.70 317.48 63.43 313.73 62.14 C 308.60 60.58 302.01 61.11 298.32 65.41 C 295.63 68.98 295.36 73.69 295.20 77.99 C 295.16 88.32 295.20 98.66 295.19 109.00 C 290.87 109.00 286.56 109.00 282.25 109.00 C 282.25 82.11 282.24 55.23 282.25 28.34 Z" />
<path fill="#000000" d=" M 400.25 28.34 C 404.53 28.34 408.81 28.34 413.09 28.34 C 413.10 39.57 413.09 50.79 413.09 62.01 C 413.05 66.22 413.51 70.56 412.04 74.61 C 418.55 66.10 426.48 58.79 433.64 50.83 C 438.96 50.83 444.28 50.82 449.60 50.83 C 441.68 59.28 433.74 67.70 425.83 76.15 C 434.04 87.10 442.26 98.04 450.46 109.00 C 445.19 109.00 439.93 109.00 434.66 109.00 C 428.71 100.92 422.75 92.85 416.79 84.78 C 415.55 85.87 414.32 86.95 413.09 88.04 C 413.10 95.02 413.09 102.01 413.09 109.00 C 408.81 109.00 404.53 109.00 400.25 109.00 C 400.25 82.11 400.24 55.23 400.25 28.34 Z" />
<path fill="#000000" d=" M 658.25 28.30 C 662.56 28.29 666.87 28.29 671.18 28.30 C 671.19 55.20 671.19 82.10 671.19 109.00 C 666.87 109.00 662.56 109.00 658.25 109.00 C 658.25 82.10 658.24 55.20 658.25 28.30 Z" />
<path fill="#000000" d=" M 211.44 31.45 C 216.05 28.74 222.76 32.41 222.25 37.96 C 222.96 42.92 217.86 47.24 213.09 45.76 C 206.76 44.41 205.88 34.30 211.44 31.45 Z" />
<path fill="#000000" d=" M 635.46 31.44 C 640.08 28.75 646.76 32.42 646.25 37.96 C 646.97 42.94 641.84 47.26 637.07 45.75 C 630.74 44.38 629.88 34.27 635.46 31.44 Z" />
<path fill="#000000" d=" M 41.29 32.84 C 44.94 32.84 48.58 32.84 52.23 32.85 C 62.05 58.40 71.86 83.95 81.67 109.50 C 77.07 109.50 72.48 109.50 67.89 109.50 C 65.02 102.00 62.16 94.51 59.30 87.01 C 50.82 86.99 42.33 87.00 33.84 87.00 C 31.01 94.50 28.18 102.00 25.34 109.50 C 20.83 109.50 16.32 109.50 11.80 109.50 C 21.62 83.94 31.45 58.39 41.29 32.84 Z" />
<path fill="#000000" d=" M 480.97 32.85 C 490.97 33.10 501.05 32.22 510.99 33.55 C 518.45 34.61 526.21 38.60 529.02 46.01 C 532.62 55.56 531.15 68.06 522.63 74.59 C 514.61 80.94 503.87 81.23 494.11 81.00 C 494.11 90.33 494.11 99.67 494.11 109.00 C 489.73 109.00 485.35 109.00 480.97 109.00 C 480.97 83.61 480.97 58.23 480.97 32.85 Z" />
<path fill="#000000" d=" M 601.09 38.34 C 604.03 38.34 606.97 38.34 609.92 38.34 C 609.93 42.51 609.92 46.67 609.93 50.84 C 615.08 50.85 620.24 50.84 625.41 50.85 C 625.41 54.53 625.41 58.21 625.41 61.89 C 620.24 61.90 615.08 61.89 609.93 61.90 C 609.94 71.62 609.89 81.35 609.94 91.08 C 609.83 93.95 610.90 97.43 614.00 98.30 C 617.99 99.19 622.05 97.91 625.80 96.60 C 625.79 100.31 625.80 104.02 625.80 107.73 C 619.08 110.43 611.01 111.14 604.44 107.68 C 599.22 104.84 597.12 98.63 597.00 93.01 C 596.85 82.64 596.98 72.27 596.93 61.89 C 594.40 61.89 591.88 61.89 589.36 61.89 C 589.35 59.35 589.35 56.80 589.36 54.26 C 592.03 53.01 594.70 51.76 597.38 50.52 C 598.62 46.47 599.83 42.40 601.09 38.34 Z" />
<path fill="#ffffff" d=" M 494.11 44.74 C 499.70 44.85 505.51 44.21 510.87 46.18 C 519.77 49.32 519.54 64.58 510.57 67.49 C 505.31 69.39 499.61 69.02 494.11 69.06 C 494.11 60.95 494.11 52.84 494.11 44.74 Z" />
<path fill="#000000" d=" M 244.16 50.90 C 253.76 48.47 263.93 50.47 272.82 54.49 C 271.30 58.09 269.78 61.69 268.26 65.29 C 261.35 62.57 253.58 59.70 246.18 62.19 C 243.19 63.04 242.43 67.18 245.04 68.95 C 252.46 73.95 262.13 74.90 268.83 81.09 C 273.92 85.74 274.43 93.79 271.65 99.80 C 268.91 105.45 262.73 108.45 256.78 109.44 C 248.07 110.75 238.82 109.86 230.92 105.81 C 230.93 101.59 230.92 97.37 230.92 93.15 C 238.47 96.72 246.88 99.96 255.36 98.21 C 257.98 97.77 260.63 95.81 260.66 92.93 C 260.68 90.66 258.79 89.07 257.01 88.01 C 250.09 84.05 241.79 82.63 235.61 77.38 C 230.66 73.24 229.65 65.75 232.07 60.00 C 234.21 55.12 239.18 52.17 244.16 50.90 Z" />
<path fill="#000000" d=" M 358.24 51.16 C 365.24 49.01 373.34 49.36 379.70 53.23 C 384.98 56.47 388.59 62.02 390.00 68.00 C 391.30 73.23 390.92 78.66 390.97 84.00 C 378.73 84.01 366.49 83.98 354.25 84.02 C 354.46 89.95 358.02 96.19 364.09 97.66 C 372.43 99.61 380.94 96.97 388.53 93.58 C 388.53 97.65 388.53 101.72 388.54 105.79 C 379.70 109.90 369.47 111.23 359.97 108.87 C 352.39 106.95 346.09 101.09 343.34 93.80 C 340.56 86.49 340.47 78.35 342.01 70.76 C 343.81 62.15 349.61 53.90 358.24 51.16 Z" />
<path fill="#000000" d=" M 541.70 55.58 C 549.12 51.55 557.61 49.16 566.11 50.00 C 571.17 50.42 576.51 52.12 579.84 56.17 C 582.99 59.98 583.86 65.10 583.90 69.92 C 583.93 82.95 583.90 95.98 583.91 109.01 C 580.52 109.02 577.14 109.02 573.76 109.01 C 573.63 106.27 573.49 103.54 573.40 100.80 C 571.20 104.46 568.10 107.86 563.79 108.90 C 556.86 110.67 548.71 110.72 542.75 106.25 C 536.42 101.50 535.10 92.40 537.35 85.22 C 539.22 79.39 544.87 75.79 550.57 74.39 C 557.28 72.56 564.30 72.87 571.19 72.84 C 571.09 68.97 571.07 63.87 566.96 62.01 C 559.75 59.42 552.37 63.05 545.90 66.02 C 544.50 62.54 543.09 59.06 541.70 55.58 Z" />
<path fill="#ffffff" d=" M 46.94 50.97 C 48.74 59.20 52.39 66.87 55.06 74.83 C 49.51 74.82 43.96 74.84 38.42 74.82 C 41.24 66.86 44.62 59.10 46.94 50.97 Z" />
<path fill="#000000" d=" M 208.50 109.00 C 208.50 89.61 208.49 70.22 208.50 50.83 C 212.81 50.83 217.12 50.83 221.44 50.83 C 221.44 70.22 221.44 89.61 221.44 109.00 C 217.12 109.00 212.81 109.00 208.50 109.00 Z" />
<path fill="#000000" d=" M 632.50 109.00 C 632.50 89.61 632.49 70.22 632.50 50.83 C 636.81 50.83 641.12 50.83 645.44 50.83 C 645.44 70.22 645.44 89.61 645.44 109.00 C 641.12 109.00 636.81 109.00 632.50 109.00 Z" />
<path fill="#ffffff" d=" M 107.41 61.64 C 111.96 60.75 117.52 61.52 120.28 65.68 C 123.72 71.05 123.56 77.81 123.24 83.95 C 122.85 89.19 121.18 95.51 115.81 97.68 C 111.38 99.19 105.90 98.78 102.20 95.73 C 98.76 92.50 98.33 87.42 98.02 83.00 C 97.87 77.65 97.76 72.04 99.90 67.03 C 101.18 64.00 104.26 62.14 107.41 61.64 Z" />
<path fill="#ffffff" d=" M 362.03 62.10 C 366.33 60.46 371.99 61.06 374.93 64.94 C 376.78 67.13 377.33 70.02 377.64 72.79 C 369.95 72.82 362.26 72.83 354.57 72.79 C 355.28 68.38 357.71 63.85 362.03 62.10 Z" />
<path fill="#ffffff" d=" M 553.76 84.75 C 559.17 82.28 565.32 83.04 571.10 82.90 C 571.06 86.60 571.07 90.63 568.79 93.76 C 565.46 98.37 558.92 99.47 553.70 98.18 C 547.89 96.31 548.56 87.02 553.76 84.75 Z" />
</svg>
